<svg xmlns="http://www.w3.org/2000/svg" width="20" height="20" viewBox="0 0 20 20">
  <g id="Contract_Interaction" data-name="Contract Interaction" transform="translate(712 -549)">
    <rect id="Rectangle_765" data-name="Rectangle 765" width="20" height="20" transform="translate(-712 549)" fill="none"/>
    <g id="Group_87" data-name="Group 87" transform="translate(-821.5 484.6)">
      <path id="Path_182" data-name="Path 182" d="M127.4,69.858a1.2,1.2,0,0,0-.182-.318l-4.365-4.776a1.206,1.206,0,0,0-.349-.255,1.06,1.06,0,0,0-.495-.109h-8.328a1.216,1.216,0,0,0-1.182,1.245V83.1a1.26,1.26,0,0,0,1.182,1.3h12.661a1.239,1.239,0,0,0,1.156-1.3V70.39A1.287,1.287,0,0,0,127.4,69.858Zm-12.4.49c0-.078.094-.109.177-.109h3.688c.083,0,.146.031.146.109v.563a.159.159,0,0,1-.146.161h-3.688A.194.194,0,0,1,115,70.91Zm0,6.667c0-.078.094-.109.177-.109h6.365c.083,0,.125.031.125.109v.563c0,.073-.036.161-.125.161h-6.365a.194.194,0,0,1-.177-.161Zm8.333,3.9c0,.073-.036.161-.125.161h-8.031A.194.194,0,0,1,115,80.91v-.562c0-.078.094-.109.177-.109h8.031c.083,0,.125.031.125.109ZM125,74.244c0,.073-.036.161-.125.161h-9.7a.194.194,0,0,1-.177-.161v-.562c0-.078.094-.109.177-.109h9.7c.083,0,.125.031.125.109Zm-2.443-3.953a.607.607,0,0,1-.578-.589V66.265l3.708,4.026Z" fill="#fff"/>
    </g>
  </g>
</svg>
